<svg xmlns="http://www.w3.org/2000/svg" width="98" height="64" viewBox="0 0 57.369 43.842">
  <g id="Headphones2" transform="translate(-431.767 -246.085)">
    <path id="Path_11" data-name="Path 11" d="M3254.293,240.116s-.61-23.342,22.271-23.53,22.407,23.53,22.407,23.53H3295.2s-.9-19.956-18.631-20.207-18.142,20.207-18.142,20.207Z" transform="translate(-2816.663 30)" fill="#c64a37" stroke="#c64a37" stroke-width="1"/>
    <path id="Path_13" data-name="Path 13" d="M3268.888,256.912l-2.675,19.311h-2.042l2.85-19.311Z" transform="translate(-2792.965 13.205)" fill="#c64a37" stroke="#c64a37" stroke-width="1"/>
    <path id="Path_7" data-name="Path 7" d="M3253.739,256.318c-2.758,2.429-2.5,9.052-1.867,13.853a5.963,5.963,0,0,0,4.888,5.35h7.92l-2.829-19.2S3256.5,253.888,3253.739,256.318Z" transform="translate(-2819.168 13.799)" fill="#c64a37" stroke="#c64a37" stroke-width="1"/>
    <path id="Path_8" data-name="Path 8" d="M3264.631,256.912l2.816,19.311h1.844l-2.85-19.311Z" transform="translate(-2820.106 13.205)" fill="#c64a37" stroke="#c64a37" stroke-width="1"/>
    <path id="Path_12" data-name="Path 12" d="M3261.555,256.318c2.758,2.429,3.1,8.846,2.461,13.647s-5.482,5.557-5.482,5.557h-7.921l2.829-19.2S3258.8,253.888,3261.555,256.318Z" transform="translate(-2775.735 13.799)" fill="#c64a37" stroke="#c64a37" stroke-width="1"/>
  </g>
</svg>
